<svg width="221" height="93" viewBox="0 0 221 93" fill="none" xmlns="http://www.w3.org/2000/svg">
<circle cx="160" cy="84" r="9" transform="rotate(-180 160 84)" fill="#EAE5FF"/>
<circle cx="134" cy="84" r="9" transform="rotate(-180 134 84)" fill="#EAE5FF"/>
<circle cx="108" cy="84" r="9" transform="rotate(-180 108 84)" fill="#EAE5FF"/>
<circle cx="82" cy="84" r="9" transform="rotate(-180 82 84)" fill="#EAE5FF"/>
<circle cx="56" cy="84" r="9" transform="rotate(-180 56 84)" fill="#EAE5FF"/>
<circle cx="30" cy="84" r="9" transform="rotate(-180 30 84)" fill="#EAE5FF"/>
<circle cx="4" cy="84" r="9" transform="rotate(-180 4 84)" fill="#EAE5FF"/>
<circle cx="212" cy="59" r="9" transform="rotate(-180 212 59)" fill="#EAE5FF"/>
<circle cx="186" cy="59" r="9" transform="rotate(-180 186 59)" fill="#EAE5FF"/>
<circle cx="160" cy="59" r="9" transform="rotate(-180 160 59)" fill="#EAE5FF"/>
<circle cx="134" cy="59" r="9" transform="rotate(-180 134 59)" fill="#EAE5FF"/>
<circle cx="108" cy="59" r="9" transform="rotate(-180 108 59)" fill="#EAE5FF"/>
<circle cx="82" cy="59" r="9" transform="rotate(-180 82 59)" fill="#EAE5FF"/>
<circle cx="56" cy="59" r="9" transform="rotate(-180 56 59)" fill="#EAE5FF"/>
<circle cx="30" cy="59" r="9" transform="rotate(-180 30 59)" fill="#EAE5FF"/>
<circle cx="4" cy="59" r="9" transform="rotate(-180 4 59)" fill="#EAE5FF"/>
<circle cx="212" cy="34" r="9" transform="rotate(-180 212 34)" fill="#EAE5FF"/>
<circle cx="186" cy="34" r="9" transform="rotate(-180 186 34)" fill="#EAE5FF"/>
<circle cx="160" cy="34" r="9" transform="rotate(-180 160 34)" fill="#EAE5FF"/>
<circle cx="134" cy="34" r="9" transform="rotate(-180 134 34)" fill="#EAE5FF"/>
<circle cx="108" cy="34" r="9" transform="rotate(-180 108 34)" fill="#EAE5FF"/>
<circle cx="82" cy="34" r="9" transform="rotate(-180 82 34)" fill="#EAE5FF"/>
<circle cx="56" cy="34" r="9" transform="rotate(-180 56 34)" fill="#EAE5FF"/>
<circle cx="30" cy="34" r="9" transform="rotate(-180 30 34)" fill="#EAE5FF"/>
<circle cx="4" cy="34" r="9" transform="rotate(-180 4 34)" fill="#EAE5FF"/>
<circle cx="108" cy="9" r="9" transform="rotate(-180 108 9)" fill="#EAE5FF"/>
<circle cx="82" cy="9" r="9" transform="rotate(-180 82 9)" fill="#EAE5FF"/>
<circle cx="56" cy="9" r="9" transform="rotate(-180 56 9)" fill="#EAE5FF"/>
<circle cx="30" cy="9" r="9" transform="rotate(-180 30 9)" fill="#EAE5FF"/>
<circle cx="4" cy="9" r="9" transform="rotate(-180 4 9)" fill="#EAE5FF"/>
</svg>
